# xmcd
#
# Track frame offsets: 
#        182
#        12542
#        33692
#        54795
#        70910
#        90665
#        106905
#        129805
#        152330
#        167077
#        186997
#        205090
#        232715
#        245870
#        272732
#        285150
#        301792
#        333642
#
# Disc length: 4632 seconds
#
# Revision: 2
# Processed by: cddbd v1.5.2PL0 Copyright (c) Steve Scherf et al.
# Submitted via: ExactAudioCopy v1.0b1
#
DISCID=ea121612
DTITLE=Up Jumped The Blues - Up Jumped The Blues
DYEAR=1996
DGENRE=Blues
TTITLE0=Phillip Walker - Don't Leave Me Baby
TTITLE1=Carey Bell - Leaving In The Morning (Live)
TTITLE2=Buddy Guy - Girl You're Nice And Clean
TTITLE3=U.P. Wilson - Half Step (Instrumental)
TTITLE4=Johnny Big Moose Walker - Rambling Woman
TTITLE5=Larry Garner - Schack Bully
TTITLE6=Byther Smith - Put Your Arms Around Me
TTITLE7=Tutu  Jones - Excited (Instrumental)
TTITLE8=Guitar  Shorty - Red Hot Mama
TTITLE9=Big  Walter Horton - Two Old Maids (Live)
TTITLE10=U.P. Wilson - Need The Need
TTITLE11=Carey and Lurrie Bell - The Gladys Schuffle (Instrumental)
TTITLE12=Little Wilie Littlefield - Cry Over You (Live)
TTITLE13=Guitar Shorty - Shorty Jumps In (Instrumental)
TTITLE14=Charlie Sayles - Down And Out
TTITLE15=Hubert Sumlin - Look Don't Touch
TTITLE16=Phil Guy - Professor's Boogie (Instrumental)
TTITLE17=Johnny Mars - Cash Ain't Nothing But  Trash
EXTD=
EXTT0=
EXTT1=
EXTT2=
EXTT3=
EXTT4=
EXTT5=
EXTT6=
EXTT7=
EXTT8=
EXTT9=
EXTT10=
EXTT11=
EXTT12=
EXTT13=
EXTT14=
EXTT15=
EXTT16=
EXTT17=
PLAYORDER=
